<?xml version="1.0" standalone="no"?>
<!DOCTYPE svg PUBLIC "-//W3C//DTD SVG 20010904//EN"
 "http://www.w3.org/TR/2001/REC-SVG-20010904/DTD/svg10.dtd">
<svg version="1.0" xmlns="http://www.w3.org/2000/svg"
 width="844.000000pt" height="844.000000pt" viewBox="0 0 844.000000 844.000000"
 preserveAspectRatio="xMidYMid meet">
<metadata>
Created by potrace 1.14, written by Peter Selinger 2001-2017
</metadata>
<g transform="translate(0.000000,844.000000) scale(0.100000,-0.100000)"
fill="#000000" stroke="none">
<path d="M5915 8420 c-17 -19 -18 -75 -19 -1183 l-1 -1162 -550 -3 -551 -2
-78 197 c-74 186 -96 239 -117 288 -5 11 -18 45 -29 75 -12 30 -27 69 -34 85
-8 17 -39 95 -71 175 -31 80 -63 159 -70 175 -7 17 -72 179 -145 360 -134 338
-162 408 -185 460 -7 17 -21 52 -31 78 -38 105 -118 109 -140 7 -9 -41 -11
-49 -14 -52 -1 -2 -3 -10 -5 -18 -1 -8 -10 -41 -19 -72 -10 -31 -19 -67 -22
-80 -2 -13 -18 -72 -34 -133 -34 -121 -39 -139 -46 -173 -2 -12 -16 -64 -30
-115 -25 -93 -30 -113 -38 -144 -3 -10 -37 -137 -76 -283 -39 -146 -73 -276
-76 -290 -2 -14 -7 -32 -10 -40 -3 -8 -16 -55 -29 -105 -25 -95 -50 -190 -91
-343 -14 -51 -27 -100 -29 -110 -2 -9 -13 -51 -25 -92 -22 -77 -27 -97 -34
-128 -2 -9 -9 -37 -16 -62 -7 -25 -14 -52 -15 -60 -2 -8 -4 -15 -5 -15 -1 0
-3 -8 -5 -18 -6 -33 -11 -28 -45 56 -18 45 -63 156 -100 247 -38 91 -118 289
-180 440 -62 151 -138 338 -169 415 -32 77 -82 199 -110 270 -29 72 -59 144
-66 160 -7 17 -23 55 -35 85 -12 30 -29 70 -37 87 -24 55 -70 66 -104 24 -16
-19 -16 -26 -4 -59 17 -46 63 -160 75 -187 5 -11 41 -99 80 -195 70 -173 87
-213 215 -525 36 -88 67 -164 69 -170 1 -5 12 -32 24 -59 12 -27 22 -52 22
-56 0 -4 6 -20 14 -36 16 -34 276 -671 276 -677 0 -2 -42 -21 -92 -42 -51 -20
-106 -43 -123 -50 -16 -7 -109 -46 -205 -85 -96 -39 -188 -77 -205 -85 -35
-15 -199 -83 -233 -96 -20 -8 -25 -5 -38 29 -8 20 -21 51 -29 67 -7 17 -61
149 -119 295 -59 146 -111 274 -115 285 -5 11 -16 36 -24 55 -8 19 -43 105
-77 190 -34 85 -68 169 -75 185 -6 17 -22 55 -35 85 -12 30 -26 64 -30 75 -5
11 -15 36 -23 55 -8 19 -58 141 -110 270 -130 321 -136 333 -154 348 -24 18
-50 15 -72 -9 -22 -24 -20 -49 8 -112 11 -23 33 -78 51 -122 17 -44 37 -93 45
-110 7 -16 59 -145 115 -285 93 -233 115 -286 141 -345 5 -11 38 -94 75 -185
36 -91 75 -185 86 -210 11 -24 21 -49 23 -55 1 -5 7 -21 12 -35 6 -14 45 -110
88 -215 42 -104 83 -203 90 -220 29 -71 36 -88 33 -90 -2 -2 -43 -20 -93 -40
-49 -20 -101 -42 -115 -48 -14 -6 -27 -11 -30 -12 -10 -3 -66 -26 -85 -34 -46
-20 -93 -40 -145 -61 -30 -12 -68 -28 -85 -35 -95 -41 -154 -62 -159 -57 -3 3
-6 1 -6 -5 0 -9 -10 -14 -55 -28 -5 -2 -27 -11 -49 -20 -21 -9 -42 -13 -47 -8
-4 4 -37 82 -74 173 -37 91 -73 178 -81 194 -8 16 -14 33 -14 38 0 4 -9 27
-19 51 -11 23 -34 78 -51 122 -18 44 -41 100 -52 125 -11 25 -26 61 -33 80 -7
19 -21 53 -31 75 -10 22 -19 45 -20 50 -4 17 -133 329 -144 347 -5 10 -10 22
-10 28 0 6 -9 30 -20 55 -11 25 -29 65 -40 90 -11 25 -20 47 -20 49 0 3 -5 17
-12 33 -6 15 -12 30 -13 33 -1 3 -7 16 -12 30 -31 71 -75 176 -77 185 -2 6 -8
21 -14 35 -23 56 -35 85 -37 90 -26 76 -83 94 -119 37 -13 -20 -14 -17 131
-372 63 -154 148 -361 189 -460 40 -99 107 -263 149 -365 43 -102 81 -199 86
-217 6 -18 14 -35 19 -38 6 -4 10 -13 10 -21 0 -8 9 -36 21 -62 32 -73 36 -81
75 -177 20 -49 42 -103 49 -120 7 -16 30 -71 50 -121 50 -125 57 -128 177 -79
51 21 109 45 128 54 19 8 40 15 45 17 6 1 44 16 85 34 120 52 235 100 250 105
9 3 44 17 110 45 175 73 201 83 205 78 3 -2 5 -1103 5 -2446 l0 -2442 25 -16
c31 -20 68 -12 81 18 7 15 10 879 10 2482 l-1 2458 35 18 c19 10 37 18 40 18
9 1 221 86 315 127 76 33 351 147 360 149 6 1 30 11 55 23 25 11 71 30 102 42
32 13 63 30 70 38 7 9 25 63 39 122 38 147 96 366 114 426 8 28 17 59 19 71 2
11 18 74 36 140 17 65 54 205 82 309 89 339 127 478 158 595 17 63 33 122 35
130 1 8 10 40 19 71 9 31 19 67 21 79 2 13 9 37 14 54 6 17 13 43 16 59 12 64
16 81 21 89 4 7 60 208 68 245 1 7 4 14 7 17 2 3 98 -230 213 -517 115 -287
217 -540 227 -562 9 -22 29 -71 44 -110 15 -38 33 -83 40 -100 12 -28 237
-589 347 -865 27 -69 55 -138 63 -155 7 -16 95 -235 195 -485 100 -250 188
-468 195 -485 7 -16 29 -73 50 -125 20 -52 43 -108 50 -125 7 -16 20 -50 30
-75 9 -25 23 -61 32 -80 8 -19 19 -44 24 -55 4 -11 39 -99 78 -195 123 -312
232 -584 246 -615 7 -16 31 -75 53 -130 l39 -100 0 -1069 0 -1070 23 -18 c29
-24 53 -23 76 3 17 19 18 61 19 1097 2 1166 -2 1068 49 1187 8 17 44 107 81
200 37 94 73 184 80 200 7 17 59 145 114 285 56 140 106 264 111 275 5 11 57
139 115 285 58 146 111 276 117 290 6 14 13 30 14 35 1 6 47 120 102 255 235
579 340 842 339 850 -1 3 6 19 16 35 14 26 203 491 211 520 2 6 8 21 13 35 6
14 63 156 127 315 65 160 121 299 126 310 8 17 153 379 331 822 27 67 49 131
49 142 0 27 -43 55 -74 47 -19 -5 -31 -23 -56 -83 -42 -103 -135 -333 -165
-408 -52 -130 -137 -341 -146 -360 -5 -11 -56 -139 -115 -285 -58 -146 -111
-276 -117 -290 -5 -14 -12 -34 -14 -44 -2 -11 -7 -24 -12 -30 -9 -13 -73 -172
-73 -183 0 -4 -5 -14 -11 -22 -6 -7 -12 -18 -13 -25 -2 -10 -60 -155 -87 -219
l-12 -27 -550 2 -550 3 -1 1162 c0 1115 -1 1163 -19 1183 -23 26 -57 26 -80 0z
m-19 -3774 c0 -719 -2 -1302 -7 -1295 -4 8 -37 88 -73 179 -37 91 -70 174 -75
185 -18 41 -33 84 -31 91 1 4 -2 10 -7 13 -4 3 -16 26 -25 51 -13 37 -235 589
-263 655 -4 11 -9 22 -10 25 -1 3 -7 19 -14 35 -7 17 -28 71 -47 120 -20 50
-42 104 -49 120 -7 17 -63 156 -124 310 -61 154 -121 303 -133 330 -35 83 -44
104 -101 250 -31 77 -61 154 -68 170 -7 17 -13 32 -13 35 -1 3 -5 10 -9 17 -4
6 -2 13 3 15 6 2 243 3 528 3 l517 0 1 -1309z m1166 1305 c6 -1 -60 -174 -117
-306 -7 -16 -34 -84 -59 -150 -26 -66 -51 -129 -56 -140 -47 -108 -70 -165
-70 -174 0 -6 -4 -19 -10 -29 -10 -19 -17 -35 -144 -352 -48 -118 -91 -224
-96 -235 -11 -24 -338 -837 -422 -1049 -32 -82 -62 -155 -66 -163 -5 -7 -7
575 -7 1294 1 720 3 1308 3 1308 48 1 1039 -3 1044 -4z"/>
<path d="M3438 4227 c-15 -12 -42 -51 -61 -87 -37 -70 -148 -283 -205 -395
-32 -63 -55 -96 -111 -160 -89 -103 -236 -401 -256 -520 -2 -11 -10 -56 -18
-100 -14 -75 -17 -351 -4 -415 2 -14 7 -43 11 -66 16 -100 98 -325 134 -366 8
-10 12 -18 8 -18 -4 0 25 -47 65 -106 67 -97 235 -284 257 -284 5 0 15 -7 22
-15 52 -63 339 -212 460 -240 8 -1 33 -8 55 -13 72 -19 197 -34 285 -35 85 0
248 11 259 17 3 2 24 7 46 10 22 4 56 12 75 18 36 11 57 17 65 18 14 2 176 75
215 97 189 108 358 259 463 415 31 47 57 91 57 97 0 6 4 11 8 11 5 0 16 19 27
42 10 24 28 66 40 93 38 86 44 103 64 183 38 149 50 300 37 462 -19 224 -97
440 -229 634 -57 84 -63 91 -157 187 -152 153 -323 260 -530 329 -92 31 -112
35 -250 57 -54 8 -260 10 -310 2 -25 -4 -66 -10 -92 -13 -70 -10 -292 -79
-308 -97 -3 -3 -21 -11 -40 -19 -19 -8 -37 -16 -40 -19 -3 -3 -23 -15 -44 -26
-22 -11 -45 -26 -53 -33 -21 -21 -15 1 16 59 129 242 136 263 104 291 -32 27
-39 27 -65 5z m852 -270 c14 -2 45 -8 70 -12 24 -3 48 -9 52 -11 4 -3 16 -7
25 -9 105 -21 320 -133 437 -226 34 -27 153 -145 177 -176 62 -77 148 -227
193 -333 90 -217 106 -510 41 -759 -52 -200 -176 -414 -321 -557 -48 -47 -140
-124 -148 -124 -4 0 -22 -11 -40 -25 -18 -14 -38 -25 -44 -25 -7 0 -12 -3 -12
-7 0 -7 -150 -84 -174 -90 -6 -1 -36 -11 -66 -22 -31 -11 -68 -22 -83 -25 -15
-3 -37 -8 -49 -11 -101 -20 -329 -27 -418 -12 -14 3 -45 8 -70 12 -24 3 -52
11 -62 16 -10 5 -18 8 -18 5 0 -2 -24 5 -52 15 -29 11 -60 22 -68 24 -34 7
-200 100 -272 152 -162 116 -279 256 -377 448 -19 39 -36 73 -37 78 -1 4 -3 9
-4 12 -1 3 -3 8 -5 13 -1 4 -7 19 -13 33 -10 26 -30 95 -38 134 -2 11 -6 31
-9 45 -18 85 -24 291 -11 385 23 166 81 332 163 463 18 29 33 55 33 58 0 16
104 134 118 135 10 0 73 2 142 4 69 3 188 7 265 9 77 3 154 5 171 5 64 2 95
63 49 99 -21 16 -37 19 -102 16 -43 -2 -154 -5 -248 -8 l-170 -5 25 20 c14 11
54 39 90 63 153 102 326 170 490 192 25 3 47 8 49 10 6 5 288 -3 321 -9z"/>
<path d="M4064 2868 c-18 -4 -46 -24 -63 -43 -96 -109 42 -271 166 -195 43 26
64 61 65 108 1 93 -79 155 -168 130z"/>
</g>
</svg>
