<svg version="1.2" baseProfile="tiny" width="378.3" height="421.8" viewBox="2763 2393 10010 11160" preserveAspectRatio="xMidYMid" fill-rule="evenodd" stroke-width="28.2" stroke-linejoin="round" xmlns="http://www.w3.org/2000/svg" xml:space="preserve"><path fill="none" stroke="#000" stroke-width="152" stroke-linecap="round" d="m2839 4835 1073 2623M6519 6381 3914 7457M5207 13477l-1-6555M4141 4308l1065 2619M5454 3781l1061 2599M7416 2991l-899 3388M10057 12364l-1-9895M10057 9554 7421 2995M12697 2986l-2636 6548M11615 5602H8488"/><path fill="none" stroke="#000" stroke-width="152" d="M7610 11617c-311 0-576-71-845-227s-463-350-619-620c-155-271-226-536-226-848s71-577 226-847c156-271 350-465 619-621s534-227 845-227 576 71 845 227 463 350 619 620c155 271 226 536 226 848s-71 577-226 847c-156 271-350 465-619 621s-534 227-845 227Z"/><path d="M7604 10102c-33 0-61-7-89-23-28-17-48-37-64-64-17-28-24-56-24-88s7-60 24-87a171.4 171.4 0 0 1 153-88c32 0 60 7 88 23 28 17 48 37 64 65 17 27 24 55 24 87s-7 60-24 88c-16 27-36 47-64 64-28 16-56 23-88 23Z"/><path fill="none" d="M7427 9752h354v351h-354z"/><path fill="none" stroke="#000" stroke-width="152" stroke-linecap="round" d="m6762 8023-385 740M7206 8743l-829 25"/></svg>